<?xml version="1.0" standalone="no"?>
<!DOCTYPE svg PUBLIC "-//W3C//DTD SVG 20010904//EN"
 "http://www.w3.org/TR/2001/REC-SVG-20010904/DTD/svg10.dtd">
<svg version="1.0" xmlns="http://www.w3.org/2000/svg"
 width="1440.000000pt" height="1024.000000pt" viewBox="0 0 1440.000000 1024.000000"
 preserveAspectRatio="xMidYMid meet">

<g transform="translate(0.000000,1024.000000) scale(0.100000,-0.100000)"
fill="#000000" stroke="none">
<path d="M14104 9868 c4 -13 8 -30 8 -38 1 -24 60 -80 84 -80 57 0 87 44 59
86 -21 32 -48 45 -107 50 -49 5 -50 4 -44 -18z m126 -33 c26 -32 -13 -81 -47
-59 -35 22 -23 74 17 74 10 0 23 -7 30 -15z"/>
<path d="M474 9708 c4 -13 8 -30 8 -38 1 -24 60 -80 84 -80 57 0 87 44 59 86
-21 32 -48 45 -107 50 -49 5 -50 4 -44 -18z m126 -33 c26 -32 -13 -81 -47 -59
-35 22 -23 74 17 74 10 0 23 -7 30 -15z"/>
<path d="M7284 9428 c4 -13 8 -30 8 -38 1 -24 60 -80 84 -80 57 0 87 44 59 86
-21 32 -48 45 -107 50 -49 5 -50 4 -44 -18z m126 -33 c26 -32 -13 -81 -47 -59
-35 22 -23 74 17 74 10 0 23 -7 30 -15z"/>
<path d="M2084 9268 c4 -13 8 -30 8 -38 1 -24 60 -80 84 -80 57 0 87 44 59 86
-21 32 -48 45 -107 50 -49 5 -50 4 -44 -18z m126 -33 c26 -32 -13 -81 -47 -59
-35 22 -23 74 17 74 10 0 23 -7 30 -15z"/>
<path d="M4764 8888 c4 -13 8 -30 8 -38 1 -24 60 -80 84 -80 57 0 87 44 59 86
-21 32 -48 45 -107 50 -49 5 -50 4 -44 -18z m126 -33 c26 -32 -13 -81 -47 -59
-35 22 -23 74 17 74 10 0 23 -7 30 -15z"/>
<path d="M9984 8888 c4 -13 8 -30 8 -38 1 -24 60 -80 84 -80 57 0 87 44 59 86
-21 32 -48 45 -107 50 -49 5 -50 4 -44 -18z m126 -33 c26 -32 -13 -81 -47 -59
-35 22 -23 74 17 74 10 0 23 -7 30 -15z"/>
<path d="M11764 8298 c4 -13 8 -30 8 -38 1 -24 60 -80 84 -80 57 0 87 44 59
86 -21 32 -48 45 -107 50 -49 5 -50 4 -44 -18z m126 -33 c26 -32 -13 -81 -47
-59 -35 22 -23 74 17 74 10 0 23 -7 30 -15z"/>
<path d="M8294 8138 c4 -13 8 -30 8 -38 1 -24 60 -80 84 -80 57 0 87 44 59 86
-21 32 -48 45 -107 50 -49 5 -50 4 -44 -18z m126 -33 c26 -32 -13 -81 -47 -59
-35 22 -23 74 17 74 10 0 23 -7 30 -15z"/>
<path d="M1354 7078 c4 -13 8 -30 8 -38 1 -24 60 -80 84 -80 57 0 87 44 59 86
-21 32 -48 45 -107 50 -49 5 -50 4 -44 -18z m126 -33 c26 -32 -13 -81 -47 -59
-35 22 -23 74 17 74 10 0 23 -7 30 -15z"/>
<path d="M12724 6998 c4 -13 8 -30 8 -38 1 -24 60 -80 84 -80 57 0 87 44 59
86 -21 32 -48 45 -107 50 -49 5 -50 4 -44 -18z m126 -33 c26 -32 -13 -81 -47
-59 -35 22 -23 74 17 74 10 0 23 -7 30 -15z"/>
<path d="M4174 6838 c4 -13 8 -30 8 -38 1 -24 60 -80 84 -80 57 0 87 44 59 86
-21 32 -48 45 -107 50 -49 5 -50 4 -44 -18z m126 -33 c26 -32 -13 -81 -47 -59
-35 22 -23 74 17 74 10 0 23 -7 30 -15z"/>
<path d="M10344 5858 c4 -13 8 -30 8 -38 1 -24 60 -80 84 -80 57 0 87 44 59
86 -21 32 -48 45 -107 50 -49 5 -50 4 -44 -18z m126 -33 c26 -32 -13 -81 -47
-59 -35 22 -23 74 17 74 10 0 23 -7 30 -15z"/>
<path d="M2884 5168 c4 -13 8 -30 8 -38 1 -24 60 -80 84 -80 57 0 87 44 59 86
-21 32 -48 45 -107 50 -49 5 -50 4 -44 -18z m126 -33 c26 -32 -13 -81 -47 -59
-35 22 -23 74 17 74 10 0 23 -7 30 -15z"/>
<path d="M7114 5168 c4 -13 8 -30 8 -38 1 -24 60 -80 84 -80 71 0 92 63 38
117 -6 7 -40 15 -74 18 -61 6 -62 5 -56 -17z m126 -33 c26 -32 -13 -81 -47
-59 -35 22 -23 74 17 74 10 0 23 -7 30 -15z"/>
<path d="M11994 5168 c4 -13 8 -30 8 -38 1 -24 60 -80 84 -80 57 0 87 44 59
86 -21 32 -48 45 -107 50 -49 5 -50 4 -44 -18z m126 -33 c26 -32 -13 -81 -47
-59 -35 22 -23 74 17 74 10 0 23 -7 30 -15z"/>
<path d="M964 4298 c4 -13 8 -30 8 -38 1 -24 60 -80 84 -80 57 0 87 44 59 86
-21 32 -48 45 -107 50 -49 5 -50 4 -44 -18z m126 -33 c26 -32 -13 -81 -47 -59
-35 22 -23 74 17 74 10 0 23 -7 30 -15z"/>
<path d="M8944 3888 c4 -13 8 -30 8 -38 1 -24 60 -80 84 -80 57 0 87 44 59 86
-21 32 -48 45 -107 50 -49 5 -50 4 -44 -18z m126 -33 c26 -32 -13 -81 -47 -59
-35 22 -23 74 17 74 10 0 23 -7 30 -15z"/>
<path d="M11824 3728 c4 -13 8 -30 8 -38 1 -24 60 -80 84 -80 57 0 87 44 59
86 -21 32 -48 45 -107 50 -49 5 -50 4 -44 -18z m126 -33 c26 -32 -13 -81 -47
-59 -35 22 -23 74 17 74 10 0 23 -7 30 -15z"/>
<path d="M2884 3308 c4 -13 8 -30 8 -38 1 -24 60 -80 84 -80 57 0 87 44 59 86
-21 32 -48 45 -107 50 -49 5 -50 4 -44 -18z m126 -33 c26 -32 -13 -81 -47 -59
-35 22 -23 74 17 74 10 0 23 -7 30 -15z"/>
<path d="M884 2888 c4 -13 8 -30 8 -38 1 -24 60 -80 84 -80 57 0 87 44 59 86
-21 32 -48 45 -107 50 -49 5 -50 4 -44 -18z m126 -33 c26 -32 -13 -81 -47 -59
-35 22 -23 74 17 74 10 0 23 -7 30 -15z"/>
<path d="M5624 2888 c4 -13 8 -30 8 -38 1 -24 60 -80 84 -80 57 0 87 44 59 86
-21 32 -48 45 -107 50 -49 5 -50 4 -44 -18z m126 -33 c26 -32 -13 -81 -47 -59
-35 22 -23 74 17 74 10 0 23 -7 30 -15z"/>
<path d="M10344 2468 c4 -13 8 -30 8 -38 1 -24 60 -80 84 -80 57 0 87 44 59
86 -21 32 -48 45 -107 50 -49 5 -50 4 -44 -18z m126 -33 c26 -32 -13 -81 -47
-59 -35 22 -23 74 17 74 10 0 23 -7 30 -15z"/>
<path d="M13934 2308 c4 -13 8 -30 8 -38 1 -24 60 -80 84 -80 57 0 87 44 59
86 -21 32 -48 45 -107 50 -49 5 -50 4 -44 -18z m126 -33 c26 -32 -13 -81 -47
-59 -35 22 -23 74 17 74 10 0 23 -7 30 -15z"/>
<path d="M2154 1778 c4 -13 8 -30 8 -38 1 -24 60 -80 84 -80 57 0 87 44 59 86
-21 32 -48 45 -107 50 -49 5 -50 4 -44 -18z m126 -33 c26 -32 -13 -81 -47 -59
-35 22 -23 74 17 74 10 0 23 -7 30 -15z"/>
<path d="M7944 1768 c4 -13 8 -30 8 -38 1 -24 60 -80 84 -80 57 0 87 44 59 86
-21 32 -48 45 -107 50 -49 5 -50 4 -44 -18z m126 -33 c26 -32 -13 -81 -47 -59
-35 22 -23 74 17 74 10 0 23 -7 30 -15z"/>
<path d="M12754 1098 c4 -13 8 -30 8 -38 1 -24 60 -80 84 -80 57 0 87 44 59
86 -21 32 -48 45 -107 50 -49 5 -50 4 -44 -18z m126 -33 c26 -32 -13 -81 -47
-59 -35 22 -23 74 17 74 10 0 23 -7 30 -15z"/>
<path d="M5624 988 c4 -13 8 -30 8 -38 1 -24 60 -80 84 -80 57 0 87 44 59 86
-21 32 -48 45 -107 50 -49 5 -50 4 -44 -18z m126 -33 c26 -32 -13 -81 -47 -59
-35 22 -23 74 17 74 10 0 23 -7 30 -15z"/>
<path d="M644 568 c4 -13 8 -30 8 -38 1 -24 60 -80 84 -80 57 0 87 44 59 86
-21 32 -48 45 -107 50 -49 5 -50 4 -44 -18z m126 -33 c26 -32 -13 -81 -47 -59
-23 14 -28 41 -13 59 16 19 44 19 60 0z"/>
<path d="M9664 488 c4 -13 8 -30 8 -38 1 -24 60 -80 84 -80 71 0 92 63 38 117
-6 7 -40 15 -74 18 -61 6 -62 5 -56 -17z m126 -33 c15 -18 10 -45 -12 -59 -35
-22 -74 27 -48 59 16 19 44 19 60 0z"/>
</g>
</svg>
